<svg width="14" height="13" viewBox="0 0 14 13" fill="none" xmlns="http://www.w3.org/2000/svg">
<path d="M12.4805 12.464L12.0965 12.272C11.9258 12.144 11.7978 12.08 11.7125 12.08L11.3285 12.208C11.0725 12.2933 10.9445 12.336 10.9445 12.336L10.5605 12.272H10.1125L9.9205 12.336C9.87784 12.3787 9.81384 12.4 9.7285 12.4L9.4725 12.272C9.30184 12.1867 9.19517 12.144 9.1525 12.144L8.8325 12.208C8.7045 12.2507 8.5765 12.272 8.4485 12.272C8.1925 12.272 8.0645 12.144 8.0645 11.888C8.0645 12.0587 8.1925 11.696 8.4485 10.8C8.61917 10.288 8.7045 9.86134 8.7045 9.52001L8.6405 9.32801L8.2565 9.07201C8.17117 8.81601 8.1285 8.60267 8.1285 8.43201L8.2565 7.92001C8.3845 7.57867 8.4485 7.34401 8.4485 7.21601C8.53384 6.96001 8.53384 6.72534 8.4485 6.51201C8.7045 6.25601 8.85384 6.06401 8.8965 5.936C8.85384 5.46667 8.85384 5.21067 8.8965 5.16801C9.06717 5.08267 9.2805 4.912 9.5365 4.65601C9.57917 4.65601 9.6645 4.72001 9.7925 4.84801C9.7925 4.76267 9.8565 4.65601 9.9845 4.52801L9.4725 4.20801C9.55784 4.12267 9.6645 4.03734 9.7925 3.95201C9.9205 3.86667 10.0485 3.73867 10.1765 3.568L10.2405 2.92801C10.4965 2.58667 10.6245 2.48 10.6245 2.60801C10.6245 2.56534 10.6032 2.50134 10.5605 2.416C10.5178 2.33067 10.4965 2.28801 10.4965 2.28801L10.4325 1.84001C10.3898 1.71201 10.3685 1.60534 10.3685 1.52C10.3685 1.30667 10.6032 1.02934 11.0725 0.688007C11.4138 0.944007 11.5845 1.07201 11.5845 1.07201C11.6272 1.07201 11.7978 0.96534 12.0965 0.752007C12.2672 0.58134 12.3952 0.496006 12.4805 0.496006C12.5232 0.496006 12.5872 0.538672 12.6725 0.624004C12.7578 0.709339 12.8005 0.752007 12.8005 0.752007L13.1845 0.560005C13.2698 0.517339 13.3338 0.496006 13.3765 0.496006C13.4192 0.45334 13.4618 0.432007 13.5045 0.432007C13.7178 0.432007 13.8245 0.58134 13.8245 0.880005C13.7392 0.880005 13.6112 1.072 13.4405 1.45601C13.2698 2.096 13.0778 2.8 12.8645 3.568C12.6938 4.336 12.4805 5.16801 12.2245 6.06401C12.0965 6.19201 12.0325 6.27734 12.0325 6.32001C12.0325 6.49067 12.3098 6.57601 12.8645 6.57601C12.8645 6.49067 13.0778 6.42667 13.5045 6.38401C13.7178 6.29867 13.8245 6.42667 13.8245 6.76801V7.60001C13.6965 7.72801 13.6325 7.87734 13.6325 8.04801V9.84001L13.5685 9.96801C13.5258 10.0107 13.5045 10.0747 13.5045 10.16V10.992C13.5472 11.0347 13.5685 11.0773 13.5685 11.12C13.5685 11.1627 13.5898 11.2267 13.6325 11.312C13.6752 11.3547 13.6965 11.6533 13.6965 12.208C13.4832 12.3787 13.0778 12.464 12.4805 12.464ZM2.4325 12.4C2.34717 12.4 2.2405 12.336 2.1125 12.208C1.94184 12.1227 1.8565 12.08 1.8565 12.08L1.5365 12.208L1.0885 12.336C0.87517 12.336 0.768503 12.2507 0.768503 12.08C0.768503 11.9947 0.768503 11.9093 0.768503 11.824C0.81117 11.696 0.81117 11.5467 0.768503 11.376L0.640503 10.736C0.640503 10.736 0.68317 10.6293 0.768503 10.416C0.853836 10.2027 0.896503 10.032 0.896503 9.90401L0.832503 9.64801C0.789836 9.60534 0.768503 9.54134 0.768503 9.45601V9.20001C0.768503 9.07201 0.768503 8.94401 0.768503 8.81601C0.768503 8.68801 0.789836 8.56001 0.832503 8.43201C0.917836 8.09067 0.93917 7.92001 0.896503 7.92001L0.768503 7.85601C0.81117 7.85601 0.853836 7.79201 0.896503 7.66401L0.832503 6.96001C0.789836 6.78934 0.768503 6.64001 0.768503 6.51201C0.768503 6.38401 0.768503 6.27734 0.768503 6.19201C0.896503 6.10667 1.1525 5.87201 1.5365 5.48801C1.57917 5.31734 1.57917 4.97601 1.5365 4.464L1.8565 3.888C2.28317 3.46134 2.47517 2.97067 2.4325 2.416C2.51784 2.33067 2.70984 2.26667 3.0085 2.22401C3.17917 2.18134 3.30717 2.11734 3.3925 2.03201C3.34984 2.03201 3.28584 1.92534 3.2005 1.71201V1.26401C3.2005 1.00801 3.24317 0.837339 3.3285 0.752007L3.9685 0.432007C3.9685 0.432007 4.07517 0.538673 4.2885 0.752007C4.50184 0.96534 4.62984 1.07201 4.6725 1.07201C4.8005 1.07201 4.97117 0.96534 5.1845 0.752007C5.3125 0.538673 5.46184 0.432007 5.6325 0.432007C6.22984 0.432007 6.48584 0.752007 6.4005 1.39201C6.31517 1.43467 6.2085 1.47734 6.0805 1.52C5.99517 1.56267 5.8885 1.62667 5.7605 1.71201L5.6325 2.92801C5.6325 3.01334 5.54717 3.12001 5.3765 3.248L5.4405 3.69601C5.4405 3.86667 5.35517 3.97334 5.1845 4.01601V4.52801C4.84317 4.99734 4.6725 5.25334 4.6725 5.29601L4.7365 5.616C4.7365 6.00001 4.82184 6.44801 4.9925 6.96001C5.03517 7.00267 5.1205 7.02401 5.2485 7.02401L5.5685 6.89601C5.6965 6.85334 5.80317 6.83201 5.8885 6.83201C6.18717 6.83201 6.3365 7.00267 6.3365 7.34401C6.3365 7.42934 6.29384 7.51467 6.2085 7.60001C6.0805 7.72801 6.0165 7.81334 6.0165 7.85601C5.97384 7.94134 5.9525 8.45334 5.9525 9.39201L5.8245 9.71201C5.8245 9.71201 5.90984 9.88267 6.0805 10.224C6.12317 10.2667 6.1445 10.3947 6.1445 10.608C6.1445 10.7787 6.03784 11.0133 5.8245 11.312C5.99517 11.5253 6.0805 11.7173 6.0805 11.888C6.0805 12.144 5.97384 12.272 5.7605 12.272H5.4405C5.3125 12.2293 5.20584 12.208 5.1205 12.208H3.8405L3.5845 12.144C3.15784 12.144 2.8805 12.1653 2.7525 12.208C2.70984 12.208 2.66717 12.2293 2.6245 12.272C2.53917 12.3573 2.47517 12.4 2.4325 12.4ZM11.1365 3.312C11.1365 3.18401 11.0725 3.12001 10.9445 3.12001L10.8805 3.312H11.1365ZM3.6485 4.59201C3.86184 4.37867 3.9685 4.18667 3.9685 4.01601C3.9685 3.84534 3.86184 3.76001 3.6485 3.76001C3.60584 3.84534 3.5845 4.05867 3.5845 4.40001L3.6485 4.59201ZM0.768503 7.85601C0.768503 7.89867 0.768503 7.89867 0.768503 7.85601V7.85601ZM9.9205 8.88001L10.0485 8.81601V8.56001L9.4085 8.24001L9.2805 8.56001C9.62184 8.77334 9.83517 8.88001 9.9205 8.88001ZM11.1365 11.056C11.2218 10.9707 11.2645 10.8853 11.2645 10.8C11.0938 10.8853 11.0512 10.9707 11.1365 11.056Z" fill="#1EC9AA"/>
</svg>
