<svg width="48" height="48" viewBox="0 0 48 48" fill="none" xmlns="http://www.w3.org/2000/svg">
<g clip-path="url(#clip0_28_192)">
<path d="M28.5 36H6L5.9949 13.3593L23.146 25.2334C23.397 25.407 23.6949 25.5 24 25.5C24.3051 25.5 24.603 25.407 24.854 25.2334L42 13.363V27H45V12C44.9989 11.2047 44.6825 10.4422 44.1201 9.87986C43.5578 9.31749 42.7953 9.00107 42 9H6C5.20463 9.00091 4.4421 9.31728 3.87969 9.87969C3.31728 10.4421 3.00091 11.2046 3 12V36C3.00107 36.7953 3.31749 37.5578 3.87986 38.1201C4.44224 38.6825 5.20468 38.9989 6 39H28.5V36ZM38.6979 12L24 22.1756L9.3021 12H38.6979Z" fill="#1EC9AA"/>
<path d="M39 42C42.3137 42 45 39.3137 45 36C45 32.6863 42.3137 30 39 30C35.6863 30 33 32.6863 33 36C33 39.3137 35.6863 42 39 42Z" fill="#1EC9AA"/>
</g>
<defs>
<clipPath id="clip0_28_192">
<rect width="48" height="48" fill="white"/>
</clipPath>
</defs>
</svg>
