<svg width="18" height="18" viewBox="0 0 18 18" fill="none" xmlns="http://www.w3.org/2000/svg">
<path d="M5.79727 0.864904C5.52656 0.210998 4.81289 -0.137049 4.13086 0.049279L1.03711 0.893029C0.425391 1.06178 0 1.61725 0 2.25006C0 10.9477 7.05234 18.0001 15.75 18.0001C16.3828 18.0001 16.9383 17.5747 17.107 16.963L17.9508 13.8692C18.1371 13.1872 17.7891 12.4735 17.1352 12.2028L13.7602 10.7965C13.1871 10.5575 12.5227 10.7227 12.1324 11.2044L10.7121 12.9376C8.23711 11.7669 6.2332 9.76295 5.0625 7.28795L6.7957 5.87115C7.27734 5.4774 7.44258 4.81647 7.20352 4.24342L5.79727 0.86842V0.864904Z" fill="#1EC9AA"/>
</svg>
