<svg width="12" height="12" viewBox="0 0 12 12" fill="none" xmlns="http://www.w3.org/2000/svg">
<path d="M1.16748 5.1684C1.01086 5.02355 1.09594 4.76169 1.30779 4.73658L4.30957 4.38053C4.39591 4.37029 4.47091 4.31607 4.50733 4.23712L5.77345 1.49223C5.8628 1.29851 6.1382 1.29847 6.22755 1.49219L7.49365 4.23706C7.53005 4.31602 7.6046 4.37038 7.6909 4.38062L10.6929 4.73658C10.9047 4.76169 10.9895 5.0236 10.8329 5.16845L8.6139 7.22095C8.55005 7.28 8.52165 7.36785 8.53855 7.45315L9.1275 10.4179C9.1691 10.6272 8.9464 10.7893 8.76025 10.6851L6.12255 9.2083C6.0467 9.16585 5.95455 9.16605 5.87865 9.2085L3.24072 10.6847C3.05457 10.7889 2.83147 10.6272 2.87305 10.4179L3.46207 7.4533C3.47901 7.36805 3.45067 7.27995 3.38684 7.22095L1.16748 5.1684Z" fill="#FFF501"/>
</svg>
