<svg width="32" height="32" viewBox="0 0 32 32" fill="none" xmlns="http://www.w3.org/2000/svg">
<path d="M2.66666 19.3333V28C2.66666 28.7364 3.26362 29.3333 3.99999 29.3333H8.95236C9.68875 29.3333 10.2857 28.7364 10.2857 28V20.6666C10.2857 19.9302 9.68875 19.3333 8.95238 19.3333H2.66666ZM2.66666 19.3333V16C2.66666 8.63616 8.63619 2.66663 16 2.66663C23.3637 2.66663 29.3333 8.63616 29.3333 16V19.3333M29.3333 19.3333V28C29.3333 28.7364 28.7364 29.3333 28 29.3333H23.0476C22.3112 29.3333 21.7143 28.7364 21.7143 28V20.6666C21.7143 19.9302 22.3112 19.3333 23.0476 19.3333H29.3333Z" stroke="#1EC9AA" stroke-width="2" stroke-linecap="round" stroke-linejoin="round"/>
</svg>
