<svg width="48" height="48" viewBox="0 0 48 48" fill="none" xmlns="http://www.w3.org/2000/svg">
<g clip-path="url(#clip0_28_182)">
<path d="M24.9185 3.32071C24.6522 3.11294 24.3242 3.00009 23.9864 3.00009C23.6487 3.00009 23.3207 3.11294 23.0544 3.32071L1.5 20.1291L3.36405 22.4867L6 20.4314V39C6.00163 39.7952 6.31822 40.5573 6.88048 41.1195C7.44273 41.6818 8.20485 41.9984 9 42H39C39.7952 41.9985 40.5574 41.682 41.1197 41.1197C41.682 40.5574 41.9985 39.7952 42 39V20.445L44.6359 22.5L46.5 20.1423L24.9185 3.32071ZM27 39H21V27H27V39ZM30 39V27C29.9991 26.2046 29.6827 25.4421 29.1203 24.8797C28.5579 24.3173 27.7954 24.0009 27 24H21C20.2046 24.0008 19.442 24.3171 18.8796 24.8796C18.3171 25.442 18.0008 26.2046 18 27V39H9V18.0923L24 6.40726L39 18.108V39H30Z" fill="#1EC9AA"/>
</g>
<defs>
<clipPath id="clip0_28_182">
<rect width="48" height="48" fill="white"/>
</clipPath>
</defs>
</svg>
