<svg width="223" height="34" viewBox="0 0 223 34" fill="none" xmlns="http://www.w3.org/2000/svg">
<path d="M41.9373 27.4216L36.5779 4.60913H41.5623L44.8748 19.5466C44.9373 19.8279 44.9841 20.0779 45.0154 20.2966C45.0466 20.505 45.0779 20.7654 45.1091 21.0779H45.2341C45.2654 20.7654 45.2966 20.505 45.3279 20.2966C45.3695 20.0779 45.4216 19.8279 45.4841 19.5466L49.0623 4.60913H54.2185L57.9216 19.5466C57.9841 19.8175 58.031 20.0623 58.0623 20.281C58.0935 20.4893 58.1248 20.755 58.156 21.0779H58.2654C58.307 20.755 58.3435 20.4893 58.3748 20.281C58.406 20.0623 58.4477 19.8175 58.4998 19.5466L61.6873 4.60913H66.2029L60.906 27.4216H55.531L51.7498 12.4685C51.6873 12.2081 51.63 11.9477 51.5779 11.6873C51.5362 11.4164 51.4945 11.1248 51.4529 10.8123H51.3591C51.3175 11.1248 51.2758 11.4112 51.2341 11.6716C51.1925 11.932 51.1352 12.1977 51.0623 12.4685L47.2966 27.4216H41.9373Z" fill="#000103"/>
<path d="M66.781 19.7966V19.281C66.781 16.8539 67.5466 14.9164 69.0779 13.4685C70.6195 12.0206 72.6404 11.2966 75.1404 11.2966C77.6508 11.2966 79.6716 12.0206 81.2029 13.4685C82.7445 14.9164 83.5154 16.8539 83.5154 19.281V19.7966C83.5154 22.2237 82.7445 24.1612 81.2029 25.6091C79.6716 27.057 77.6508 27.781 75.1404 27.781C72.6404 27.781 70.6195 27.057 69.0779 25.6091C67.5466 24.1612 66.781 22.2237 66.781 19.7966ZM71.7966 19.0623V19.9998C71.7966 21.3227 72.0831 22.3539 72.656 23.0935C73.2393 23.8227 74.0675 24.1873 75.1404 24.1873C76.2237 24.1873 77.0518 23.8227 77.6248 23.0935C78.2081 22.3539 78.4998 21.3227 78.4998 19.9998V19.0623C78.4998 17.7498 78.2081 16.7341 77.6248 16.0154C77.0414 15.2862 76.2133 14.9216 75.1404 14.9216C74.0779 14.9216 73.255 15.2862 72.6716 16.0154C72.0883 16.7341 71.7966 17.7498 71.7966 19.0623Z" fill="#000103"/>
<path d="M86.1716 27.3591V11.7654H90.9529L91.0154 13.6716H91.0779C91.4737 12.9945 92.0831 12.4477 92.906 12.031C93.7393 11.6143 94.6977 11.406 95.781 11.406C97.3852 11.406 98.6873 11.8591 99.6873 12.7654C100.698 13.6612 101.203 15.2029 101.203 17.3904V27.3591H96.2654V17.7029C96.2654 16.7654 96.0623 16.1039 95.656 15.7185C95.2602 15.3331 94.6977 15.1404 93.9685 15.1404C93.3539 15.1404 92.7914 15.3175 92.281 15.6716C91.7706 16.0258 91.38 16.5154 91.1091 17.1404V27.3591H86.1716Z" fill="#000103"/>
<path d="M103.719 19.7966V19.2966C103.719 16.9945 104.338 15.1143 105.578 13.656C106.817 12.1873 108.437 11.4529 110.437 11.4529C111.5 11.4529 112.411 11.6352 113.172 11.9998C113.932 12.3539 114.521 12.8279 114.937 13.4216V3.90601H119.812V27.3591H115.109L115.047 25.3904H114.984C114.609 26.0362 114.021 26.5779 113.219 27.0154C112.427 27.4529 111.505 27.6716 110.453 27.6716C108.359 27.6716 106.713 26.9373 105.515 25.4685C104.317 23.9998 103.719 22.1091 103.719 19.7966ZM108.734 19.906C108.734 21.156 108.995 22.1716 109.515 22.9529C110.047 23.7341 110.844 24.1248 111.906 24.1248C112.635 24.1248 113.255 23.9216 113.765 23.5154C114.276 23.1091 114.651 22.63 114.89 22.0779V16.9841C114.661 16.4425 114.297 15.9789 113.797 15.5935C113.297 15.1977 112.672 14.9998 111.922 14.9998C110.859 14.9998 110.062 15.3904 109.531 16.1716C109 16.9529 108.734 17.9633 108.734 19.2029V19.906Z" fill="#000103"/>
<path d="M122.469 19.781V19.281C122.469 16.8643 123.219 14.932 124.719 13.4841C126.219 12.0258 128.172 11.2966 130.578 11.2966C132.974 11.2966 134.838 11.9893 136.172 13.3748C137.515 14.7498 138.187 16.6404 138.187 19.0466V20.6248H125.484V17.8435H133.375V17.5935C133.375 16.7914 133.135 16.1248 132.656 15.5935C132.177 15.0518 131.474 14.781 130.547 14.781C129.515 14.781 128.729 15.1612 128.187 15.9216C127.646 16.682 127.375 17.6768 127.375 18.906V19.9373C127.375 21.281 127.666 22.3383 128.25 23.1091C128.833 23.8695 129.687 24.2498 130.812 24.2498C131.604 24.2498 132.281 24.0675 132.844 23.7029C133.416 23.3279 133.87 22.88 134.203 22.3591L137.984 24.0779C137.474 25.1925 136.62 26.0935 135.422 26.781C134.224 27.4581 132.708 27.7966 130.875 27.7966C128.239 27.7966 126.177 27.0727 124.687 25.6248C123.208 24.1664 122.469 22.2185 122.469 19.781Z" fill="#000103"/>
<path d="M140.672 27.3591V11.7654H145.515L145.578 13.6404H145.625C145.989 13.005 146.474 12.4737 147.078 12.0466C147.692 11.6091 148.39 11.3904 149.172 11.3904C149.422 11.3904 149.666 11.4164 149.906 11.4685C150.156 11.5102 150.333 11.5518 150.437 11.5935V15.5623C150.25 15.4998 150.036 15.4529 149.797 15.4216C149.557 15.3904 149.297 15.3748 149.015 15.3748C148.317 15.3748 147.666 15.5883 147.062 16.0154C146.458 16.4425 146 16.9945 145.687 17.6716V27.3591H140.672Z" fill="#000103"/>
<path d="M158.187 8.56226V4.60913H176.187V8.56226H169.75V27.3591H164.625V8.56226H158.187Z" fill="#000103"/>
<path d="M175.437 19.7966V19.281C175.437 16.8539 176.203 14.9164 177.734 13.4685C179.276 12.0206 181.297 11.2966 183.797 11.2966C186.307 11.2966 188.328 12.0206 189.859 13.4685C191.401 14.9164 192.172 16.8539 192.172 19.281V19.7966C192.172 22.2237 191.401 24.1612 189.859 25.6091C188.328 27.057 186.307 27.781 183.797 27.781C181.297 27.781 179.276 27.057 177.734 25.6091C176.203 24.1612 175.437 22.2237 175.437 19.7966ZM180.453 19.0623V19.9998C180.453 21.3227 180.739 22.3539 181.312 23.0935C181.896 23.8227 182.724 24.1873 183.797 24.1873C184.88 24.1873 185.708 23.8227 186.281 23.0935C186.864 22.3539 187.156 21.3227 187.156 19.9998V19.0623C187.156 17.7498 186.864 16.7341 186.281 16.0154C185.698 15.2862 184.87 14.9216 183.797 14.9216C182.734 14.9216 181.911 15.2862 181.328 16.0154C180.745 16.7341 180.453 17.7498 180.453 19.0623Z" fill="#000103"/>
<path d="M194.687 21.5935V11.7654H199.64V21.3435C199.64 22.3435 199.844 23.0414 200.25 23.4373C200.666 23.8227 201.229 24.0154 201.937 24.0154C202.583 24.0154 203.151 23.8279 203.64 23.4529C204.14 23.0675 204.521 22.5883 204.781 22.0154V11.7654H209.719V27.3591H204.953L204.875 25.4373H204.828C204.38 26.1248 203.745 26.6768 202.922 27.0935C202.099 27.4998 201.14 27.7029 200.047 27.7029C198.474 27.7029 197.187 27.2341 196.187 26.2966C195.187 25.3487 194.687 23.781 194.687 21.5935Z" fill="#000103"/>
<path d="M213.172 27.3591V11.7654H218.015L218.078 13.6404H218.125C218.489 13.005 218.974 12.4737 219.578 12.0466C220.192 11.6091 220.89 11.3904 221.672 11.3904C221.922 11.3904 222.166 11.4164 222.406 11.4685C222.656 11.5102 222.833 11.5518 222.937 11.5935V15.5623C222.75 15.4998 222.536 15.4529 222.297 15.4216C222.057 15.3904 221.797 15.3748 221.515 15.3748C220.817 15.3748 220.166 15.5883 219.562 16.0154C218.958 16.4425 218.5 16.9945 218.187 17.6716V27.3591H213.172Z" fill="#000103"/>
<g clip-path="url(#clip0_8_95)">
<path d="M8.41597 22.1297C11.249 26.8706 17.3889 28.4171 22.1297 25.584C26.8706 22.751 28.4171 16.6111 25.5841 11.8703C22.751 7.12943 16.6111 5.58289 11.8703 8.41596C7.12944 11.249 5.58289 17.3889 8.41597 22.1297Z" stroke="black" stroke-width="2" stroke-linecap="round" stroke-linejoin="round"/>
<path d="M22.1504 13.9221L13.5664 19.0519" stroke="black" stroke-width="2" stroke-linecap="round" stroke-linejoin="round"/>
<path d="M19.5752 15.4611L19.6655 21.4604" stroke="black" stroke-width="2" stroke-linecap="round" stroke-linejoin="round"/>
<path d="M19.5752 15.4611L14.3345 12.5396" stroke="black" stroke-width="2" stroke-linecap="round" stroke-linejoin="round"/>
<path d="M13.5664 19.0519L10.9964 17.6753" stroke="black" stroke-width="2" stroke-linecap="round" stroke-linejoin="round"/>
<path d="M13.5664 19.0519L13.5612 21.9674" stroke="black" stroke-width="2" stroke-linecap="round" stroke-linejoin="round"/>
</g>
<defs>
<clipPath id="clip0_8_95">
<rect width="24" height="24" fill="white" transform="translate(21.1452 0.543457) rotate(59.1379)"/>
</clipPath>
</defs>
</svg>
