<svg width="48" height="48" viewBox="0 0 48 48" fill="none" xmlns="http://www.w3.org/2000/svg">
<path fill-rule="evenodd" clip-rule="evenodd" d="M37.5003 21.0002L37.4873 21.4858L37.5003 22.0002L37.4881 22.4866L37.5003 23.0002L37.4885 23.49L37.5003 24.0002L37.1755 38.2062C37.0985 41.5768 34.5349 44.368 31.1831 44.731C26.4083 45.248 21.5915 45.248 16.8166 44.731C13.4648 44.368 10.9013 41.5768 10.8242 38.2062L10.4994 24.0002L10.5112 23.4866L10.4995 23.0002L10.5118 22.4886L10.4994 22.0002L10.5124 21.488L10.4993 21.0002L10.8273 8.80429C10.8319 8.63413 10.8438 8.46573 10.8629 8.29943L10.8703 8.22911L10.8762 8.17243C11.0375 6.52423 11.9508 5.08671 13.2819 4.22405C13.3812 4.15801 13.4828 4.09511 13.5866 4.03551C13.6882 3.97541 13.7919 3.91841 13.8975 3.86463C14.5507 3.51991 15.2797 3.29647 16.0557 3.22503C21.3407 2.73855 26.6591 2.73855 31.9439 3.22505C32.7187 3.29635 33.4467 3.51919 34.0991 3.86299C34.2047 3.91669 34.3083 3.97361 34.4099 4.03363C34.5171 4.09501 34.6219 4.15991 34.7241 4.22813C36.0481 5.08887 36.9575 6.51893 37.1221 8.15883L37.1377 8.30743C37.1563 8.47115 37.1679 8.63687 37.1723 8.80429L37.5003 21.0002ZM34.1483 8.64153L34.4623 22.3748L34.2079 31.8354C34.1507 33.962 32.5125 35.7102 30.3939 35.9052C26.1401 36.2968 21.8595 36.2968 17.6057 35.9052C15.4872 35.7102 13.849 33.962 13.7918 31.8354L13.5374 22.376L13.8513 8.64153C13.852 8.61197 13.8532 8.58255 13.855 8.55327C13.974 7.74871 14.4402 7.05423 15.1013 6.63249C15.3518 6.50193 15.6297 6.41535 15.9253 6.38335C21.2927 5.80209 26.7071 5.80209 32.0745 6.38335C32.3699 6.41535 32.6477 6.50187 32.8981 6.63233C33.5595 7.05417 34.0259 7.74899 34.1447 8.55393C34.1465 8.58301 34.1477 8.61221 34.1483 8.64153ZM23.9999 43.4002C25.6567 43.4002 26.9999 42.057 26.9999 40.4002C26.9999 38.7432 25.6567 37.4002 23.9999 37.4002C22.3431 37.4002 20.9999 38.7432 20.9999 40.4002C20.9999 42.057 22.3431 43.4002 23.9999 43.4002Z" fill="#1EC9AA"/>
</svg>
