<svg width="32" height="32" viewBox="0 0 32 32" fill="none" xmlns="http://www.w3.org/2000/svg">
<path d="M16 16.7874C13.4226 16.7874 11.3333 18.8767 11.3333 21.454C11.3333 24.0314 13.4226 26.1207 16 26.1207C18.5773 26.1207 20.6666 24.0314 20.6666 21.454C20.6666 18.8767 18.5773 16.7874 16 16.7874ZM14 21.454C14 20.3495 14.8954 19.454 16 19.454C17.1045 19.454 18 20.3495 18 21.454C18 22.5586 17.1045 23.454 16 23.454C14.8954 23.454 14 22.5586 14 21.454Z" fill="#1EC9AA"/>
<path d="M23.3683 6.94212L19.1299 1L3.54463 13.4495L2.67949 13.4414L2.67937 13.4541H2V29.4541H30V13.4541H28.7177L26.1653 5.98873L23.3683 6.94212ZM25.8996 13.4541H12.5287L22.4876 10.0596L24.5168 9.4101L25.8996 13.4541ZM20.7333 7.84022L10.4527 11.3444L18.5941 4.84102L20.7333 7.84022ZM4.66667 24.3456V18.5598C5.80321 18.1581 6.70401 17.2573 7.10572 16.1208H24.8936C25.2953 17.2577 26.1964 18.1588 27.3333 18.5605V24.3484C26.1968 24.7501 25.296 25.6509 24.8943 26.7874H7.10849C6.70656 25.6494 5.80465 24.7476 4.66667 24.3456Z" fill="#1EC9AA"/>
</svg>
