<svg width="14" height="13" viewBox="0 0 14 13" fill="none" xmlns="http://www.w3.org/2000/svg">
<path d="M0.640557 12.656C0.427223 12.656 0.320557 12.528 0.320557 12.272C0.40589 12.272 0.53389 12.08 0.704557 11.696C0.875223 11.056 1.04589 10.352 1.21656 9.58399C1.42989 8.81599 1.66456 7.98399 1.92056 7.08799C2.04856 6.95999 2.11256 6.87465 2.11256 6.83199C2.11256 6.66132 1.83522 6.57599 1.28056 6.57599C1.28056 6.66132 1.08856 6.72532 0.704557 6.76799H0.640557C0.427223 6.76799 0.320557 6.61865 0.320557 6.31999C0.320557 6.19199 0.320557 6.06399 0.320557 5.93599C0.320557 5.80799 0.34189 5.65865 0.384557 5.48799C0.384557 5.48799 0.40589 5.44532 0.448557 5.35999C0.53389 5.23199 0.576557 5.14665 0.576557 5.10399V3.24799L0.640557 2.99199V2.15999C0.59789 2.11732 0.576557 2.07465 0.576557 2.03199C0.576557 1.94665 0.555223 1.88265 0.512557 1.83999V0.879986C0.72589 0.751987 1.10989 0.687988 1.66456 0.687988L2.04856 0.879986C2.26189 1.00799 2.38989 1.07199 2.43256 1.07199L2.81656 0.879986C3.07256 0.794654 3.20056 0.751987 3.20056 0.751987L3.64856 0.815987C3.77656 0.858653 3.90456 0.879986 4.03256 0.879986L4.22456 0.815987C4.26722 0.773321 4.33122 0.751987 4.41656 0.751987L4.73656 0.879986C4.90722 0.965321 4.99256 1.00799 4.99256 1.00799L5.37656 0.879986C5.50456 0.83732 5.63256 0.815987 5.76056 0.815987C5.97389 0.815987 6.08056 0.943986 6.08056 1.19999C6.08056 1.07199 5.95256 1.45599 5.69656 2.35199C5.52589 2.86399 5.44056 3.29065 5.44056 3.63199L5.50456 3.82399L5.88856 4.07999C5.97389 4.33599 6.01656 4.54932 6.01656 4.71999L5.88856 5.23199C5.76056 5.53065 5.69656 5.76532 5.69656 5.93599C5.61122 6.19199 5.61122 6.42665 5.69656 6.63999C5.44056 6.89599 5.29122 7.06665 5.24856 7.15199C5.33389 7.66399 5.35522 7.94132 5.31256 7.98399C5.09922 8.06932 4.88589 8.23999 4.67256 8.49599L4.41656 8.30399C4.33122 8.38932 4.26722 8.47465 4.22456 8.55999C4.22456 8.64532 4.37389 8.77332 4.67256 8.94399C4.54456 9.02932 4.30989 9.24265 3.96856 9.58399V10.16C3.66989 10.4587 3.52056 10.5867 3.52056 10.544C3.52056 10.544 3.56322 10.5867 3.64856 10.672C3.69122 10.7147 3.71256 10.7787 3.71256 10.864L3.77656 11.248V11.568C3.77656 11.824 3.54189 12.1227 3.07256 12.464C2.77389 12.208 2.60322 12.08 2.56056 12.08C2.47522 12.08 2.34722 12.1653 2.17656 12.336C1.96322 12.5067 1.79256 12.592 1.66456 12.592C1.66456 12.592 1.62189 12.5493 1.53656 12.464C1.49389 12.4213 1.42989 12.4 1.34456 12.4L1.02456 12.528C0.768557 12.6133 0.640557 12.656 0.640557 12.656ZM10.2406 12.72C10.1979 12.72 10.0699 12.6133 9.85656 12.4C9.64322 12.1867 9.51522 12.08 9.47256 12.08C9.30189 12.08 9.15256 12.1653 9.02456 12.336C8.81122 12.5493 8.64056 12.656 8.51256 12.656C7.91522 12.656 7.65922 12.3573 7.74456 11.76C7.91522 11.7173 8.12856 11.5893 8.38456 11.376C8.38456 11.376 8.42722 10.992 8.51256 10.224C8.59789 10.0533 8.68322 9.94665 8.76856 9.90399L8.70456 9.45599C8.78989 9.24265 8.87522 9.11465 8.96056 9.07199C9.04589 8.98665 9.04589 8.83732 8.96056 8.62399C9.34456 8.15465 9.53656 7.89865 9.53656 7.85599C9.49389 7.89865 9.45122 7.79199 9.40856 7.53599C9.40856 7.15199 9.32322 6.70399 9.15256 6.19199C9.10989 6.14932 9.02456 6.12799 8.89656 6.12799L8.57656 6.19199C8.49122 6.23465 8.42722 6.27732 8.38456 6.31999C8.34189 6.31999 8.29922 6.31999 8.25656 6.31999C7.95789 6.31999 7.80856 6.14932 7.80856 5.80799C7.80856 5.72265 7.87256 5.61599 8.00056 5.48799C8.08589 5.40265 8.12856 5.33865 8.12856 5.29599C8.17122 5.21065 8.19256 4.69865 8.19256 3.75999L8.32056 3.43999C8.32056 3.43999 8.23522 3.26932 8.06456 2.92799V2.54399C8.06456 2.33065 8.14989 2.07465 8.32056 1.77599C8.14989 1.56265 8.06456 1.37065 8.06456 1.19999C8.06456 0.943986 8.17122 0.815987 8.38456 0.815987L8.70456 0.879986C8.83256 0.922652 8.93922 0.943985 9.02456 0.943985C9.06722 0.901319 9.49389 0.879986 10.3046 0.879986L10.6246 1.00799C11.0086 1.00799 11.2646 0.986654 11.3926 0.943985C11.4352 0.943985 11.4992 0.901319 11.5846 0.815987C11.6272 0.773321 11.6699 0.751987 11.7126 0.751987C11.7552 0.751987 11.8619 0.794654 12.0326 0.879986C12.1606 1.00799 12.2459 1.07199 12.2886 1.07199L12.6726 0.879986C12.9286 0.794654 13.0566 0.751987 13.0566 0.751987C13.3126 0.751987 13.4406 0.879987 13.4406 1.13599C13.3126 1.30665 13.2912 1.51999 13.3766 1.77599L13.5046 2.41599C13.5046 2.41599 13.4619 2.52265 13.3766 2.73599C13.2912 2.94932 13.2486 3.11999 13.2486 3.24799L13.3126 3.43999C13.3552 3.52532 13.3766 3.61065 13.3766 3.69599V3.95199C13.3766 4.03732 13.3766 4.14399 13.3766 4.27199C13.3766 4.39999 13.3552 4.54932 13.3126 4.71999C13.2699 5.01865 13.2699 5.18932 13.3126 5.23199L13.3766 5.29599C13.3339 5.29599 13.2912 5.35999 13.2486 5.48799L13.3126 6.12799C13.3979 6.59732 13.4192 6.87465 13.3766 6.95999C13.1632 7.08799 12.9286 7.32265 12.6726 7.66399C12.5446 7.83465 12.5232 8.15465 12.6086 8.62399L12.2886 9.26399C11.8192 9.64799 11.6272 10.1387 11.7126 10.736C11.6699 10.7787 11.4779 10.8427 11.1366 10.928C10.9659 10.9707 10.8379 11.0347 10.7526 11.12C10.7952 11.12 10.8592 11.2267 10.9446 11.44C10.9872 11.4827 11.0086 11.6107 11.0086 11.824C11.0086 12.1227 10.9446 12.3147 10.8166 12.4C10.3046 12.6133 10.1126 12.72 10.2406 12.72ZM2.94456 2.35199C3.02989 2.22399 3.05122 2.13865 3.00856 2.09599C2.96589 2.13865 2.94456 2.22399 2.94456 2.35199ZM4.80056 4.91199L4.86456 4.59199C4.56589 4.33599 4.37389 4.20799 4.28856 4.20799C4.20322 4.20799 4.13922 4.22932 4.09656 4.27199V4.59199L4.80056 4.91199ZM13.3766 5.29599C13.3766 5.25332 13.3766 5.25332 13.3766 5.29599V5.29599ZM10.5606 9.39199C10.6032 9.30665 10.6246 9.09332 10.6246 8.75199L10.4966 8.55999C10.2832 8.77332 10.1766 8.96532 10.1766 9.13599C10.1766 9.30665 10.3046 9.39199 10.5606 9.39199ZM3.26456 10.032L3.32856 9.77599H3.00856C3.00856 9.94665 3.09389 10.032 3.26456 10.032Z" fill="#1EC9AA"/>
</svg>
