<svg width="24" height="22" viewBox="0 0 24 22" fill="none" xmlns="http://www.w3.org/2000/svg">
<path d="M18.225 21.8375C15.1875 21.8375 10.875 19.6625 6.9 15.9125C1.50001 10.7375 -0.787495 4.96251 1.6125 2.41251C1.725 2.30001 1.875 2.18751 2.025 2.11251L5.0625 0.387505C5.85001 -0.0624945 6.82501 0.162505 7.35001 0.912505L9.5625 4.06251C9.825 4.43751 9.93751 4.88751 9.82501 5.33751C9.75001 5.75001 9.4875 6.12501 9.1125 6.38751L7.8 7.25001C8.8125 8.71251 11.55 12.35 15.9 14.9375C15.9375 14.975 15.975 14.9375 15.975 14.9375L16.9125 13.6625C17.4375 12.95 18.45 12.7625 19.2375 13.25L22.5375 15.35C23.325 15.8375 23.55 16.85 23.0625 17.6375L21.2625 20.525C21.15 20.675 21.0375 20.825 20.925 20.9375C20.25 21.5375 19.3125 21.8375 18.225 21.8375ZM5.925 1.85001L2.85 3.57501C1.425 5.11251 3.18751 10.025 8.10001 14.675C13.0875 19.4 18.225 21.0875 19.875 19.6625L21.675 16.775L18.375 14.675H18.3L17.3625 15.95C16.8375 16.6625 15.825 16.85 15.075 16.4C10.3875 13.5875 7.46251 9.68751 6.41251 8.15001C6.15001 7.77501 6.07501 7.32501 6.15 6.91251C6.225 6.46251 6.4875 6.08751 6.8625 5.8625L8.175 5.00001L6 1.88751C5.9625 1.88751 5.925 1.85001 5.925 1.85001Z" fill="#1EC9AA"/>
</svg>
