<svg width="32" height="32" viewBox="0 0 32 32" fill="none" xmlns="http://www.w3.org/2000/svg">
<path d="M25.3333 4V9.33333M25.3333 28V14.6667M16 4V20M16 28V25.3333M6.66666 4V6.66667M6.66666 28V12" stroke="#1EC9AA" stroke-width="2" stroke-linecap="round"/>
<path d="M22.6667 12C22.6667 13.4728 23.8606 14.6667 25.3333 14.6667C26.8061 14.6667 28 13.4728 28 12C28 10.5273 26.8061 9.33337 25.3333 9.33337C23.8606 9.33337 22.6667 10.5273 22.6667 12Z" stroke="#1EC9AA" stroke-width="2" stroke-linecap="round"/>
<path d="M13.3333 22.6667C13.3333 24.1394 14.5272 25.3333 16 25.3333C17.4727 25.3333 18.6667 24.1394 18.6667 22.6667C18.6667 21.1939 17.4727 20 16 20C14.5272 20 13.3333 21.1939 13.3333 22.6667Z" stroke="#1EC9AA" stroke-width="2" stroke-linecap="round"/>
<path d="M4.00001 9.33329C4.00001 10.8061 5.19392 12 6.66668 12C8.13944 12 9.33334 10.8061 9.33334 9.33329C9.33334 7.86053 8.13944 6.66663 6.66668 6.66663C5.19392 6.66663 4.00001 7.86053 4.00001 9.33329Z" stroke="#1EC9AA" stroke-width="2" stroke-linecap="round"/>
</svg>
