<svg width="24" height="24" viewBox="0 0 24 24" fill="none" xmlns="http://www.w3.org/2000/svg">
<path d="M15.6 7.84501C14.9419 7.30831 14.1645 6.93763 13.3332 6.7642C12.5019 6.59078 11.6411 6.61969 10.8233 6.8485C10.0056 7.07731 9.25474 7.49931 8.63416 8.07896C8.01358 8.65861 7.5414 9.37892 7.2574 10.1792C6.97341 10.9795 6.88592 11.8363 7.0023 12.6775C7.11869 13.5187 7.43554 14.3195 7.92616 15.0127C8.41678 15.7058 9.0668 16.2708 9.82146 16.6602C10.5761 17.0496 11.4133 17.2518 12.2625 17.25C14.5762 17.25 16.3387 15.7838 17.0587 13.7138H12V10.2788H20.85" stroke="#838383"/>
<path d="M20.85 10.2788C20.85 11.1113 20.85 11.4038 20.85 12C20.8508 14.0276 20.1556 15.994 18.8806 17.5706C17.6057 19.1471 15.8283 20.2384 13.8454 20.6618C11.8626 21.0853 9.79444 20.8154 7.9867 19.8972C6.17896 18.979 4.74114 17.4681 3.91357 15.6171C3.08599 13.7661 2.9188 11.6872 3.43994 9.72771C3.96108 7.76825 5.13897 6.04703 6.77674 4.85173C8.41452 3.65643 10.4129 3.05947 12.438 3.16063C14.463 3.26179 16.392 4.05494 17.9025 5.40751L15.5775 7.82626" stroke="#838383" stroke-linecap="square"/>
</svg>
