<svg width="24" height="24" viewBox="0 0 24 24" fill="none" xmlns="http://www.w3.org/2000/svg">
<path d="M14.0588 7.4475C14.0588 7.42125 14.1938 7.335 14.625 7.335H16.035C16.1451 7.33649 16.2544 7.31604 16.3565 7.27482C16.4586 7.23361 16.5514 7.17247 16.6296 7.09496C16.7078 7.01746 16.7698 6.92515 16.8119 6.82342C16.8541 6.7217 16.8755 6.6126 16.875 6.5025V4.0425C16.877 3.93286 16.8573 3.8239 16.817 3.7219C16.7768 3.61989 16.7168 3.52684 16.6405 3.44809C16.5642 3.36934 16.4731 3.30644 16.3724 3.26301C16.2717 3.21957 16.1634 3.19646 16.0538 3.195H13.9537C13.371 3.17502 12.7902 3.27376 12.2468 3.48521C11.7033 3.69665 11.2085 4.0164 10.7925 4.425C10.3896 4.85966 10.0764 5.36965 9.87116 5.92566C9.66587 6.48168 9.57245 7.07277 9.59625 7.665V9.89625H7.965C7.85518 9.89575 7.74634 9.9169 7.64469 9.95847C7.54305 10 7.45058 10.0612 7.37258 10.1385C7.29458 10.2158 7.23257 10.3077 7.19009 10.409C7.14761 10.5103 7.12549 10.6189 7.125 10.7287V13.38C7.125 13.5998 7.21231 13.8106 7.36773 13.966C7.52316 14.1214 7.73395 14.2087 7.95375 14.2087H9.55875V19.965C9.55574 20.1852 9.64007 20.3975 9.79328 20.5557C9.94649 20.7138 10.1561 20.8048 10.3763 20.8087H13.1325C13.2416 20.8088 13.3497 20.7872 13.4505 20.7453C13.5513 20.7034 13.6428 20.642 13.7198 20.5647C13.7968 20.4873 13.8578 20.3955 13.8992 20.2945C13.9407 20.1936 13.9617 20.0854 13.9612 19.9762V14.2275H15.9225C16.143 14.2265 16.3542 14.1385 16.5101 13.9826C16.666 13.8267 16.754 13.6155 16.755 13.395V10.74C16.755 10.6308 16.7334 10.5228 16.6916 10.422C16.6497 10.3212 16.5883 10.2297 16.5109 10.1527C16.4336 10.0756 16.3418 10.0147 16.2408 9.97325C16.1398 9.93183 16.0316 9.91075 15.9225 9.91125H13.9725V7.9575C13.9516 7.78274 13.9815 7.60567 14.0588 7.4475Z" stroke="#838383" stroke-linecap="round"/>
</svg>
