<svg width="24" height="24" viewBox="0 0 24 24" fill="none" xmlns="http://www.w3.org/2000/svg">
<path d="M12 2C14.7219 2 15.0572 2.01972 16.1223 2.05917C17.1677 2.09862 17.8974 2.27613 18.5483 2.53254C19.2189 2.78895 19.7712 3.12426 20.3235 3.67653C20.8757 4.2288 21.211 4.78107 21.4675 5.45168C21.7239 6.10256 21.9014 6.83235 21.9408 7.87771C21.9803 8.9428 22 9.27811 22 12C22 14.7219 21.9803 15.0572 21.9408 16.1223C21.9014 17.1677 21.7239 17.8974 21.4675 18.5483C21.211 19.2189 20.8757 19.7712 20.3235 20.3235C19.7712 20.8757 19.2189 21.211 18.5483 21.4675C17.8974 21.7239 17.1677 21.9014 16.1223 21.9408C15.0572 21.9803 14.7219 22 12 22C9.27811 22 8.9428 21.9803 7.87771 21.9408C6.83235 21.9014 6.10256 21.7239 5.45168 21.4675C4.78107 21.211 4.2288 20.8757 3.67653 20.3235C3.12426 19.7712 2.78895 19.2189 2.53254 18.5483C2.27613 17.8974 2.09862 17.1677 2.05917 16.1223C2.01972 15.0572 2 14.7219 2 12C2 9.27811 2.01972 8.9428 2.05917 7.87771C2.09862 6.83235 2.27613 6.10256 2.53254 5.45168C2.78895 4.78107 3.12426 4.2288 3.67653 3.67653C4.2288 3.12426 4.78107 2.78895 5.45168 2.53254C6.10256 2.27613 6.83235 2.09862 7.87771 2.05917C8.9428 2.01972 9.27811 2 12 2ZM12 3.30178C9.15976 3.30178 8.82446 3.3215 7.71992 3.36095C6.69428 3.40039 6.12229 3.59763 5.74753 3.7357C4.78107 4.13018 4.13018 4.78107 3.7357 5.74753C3.59763 6.12229 3.40039 6.69428 3.36095 7.71992C3.3215 8.82446 3.30178 9.15976 3.30178 12C3.30178 14.8402 3.3215 15.1755 3.36095 16.2801C3.40039 17.3057 3.59763 17.8777 3.7357 18.2525C4.13018 19.2189 4.78107 19.8698 5.74753 20.2643C6.12229 20.4024 6.69428 20.5996 7.71992 20.6391C8.82446 20.6785 9.15976 20.6982 12 20.6982C14.8402 20.6982 15.1755 20.6785 16.2801 20.6391C17.3057 20.5996 17.8777 20.4024 18.2525 20.2643C19.2189 19.8698 19.8698 19.2189 20.2643 18.2525C20.4024 17.8777 20.5996 17.3057 20.6391 16.2801C20.6785 15.1755 20.6982 14.8402 20.6982 12C20.6982 9.15976 20.6785 8.82446 20.6391 7.71992C20.5996 6.69428 20.4024 6.12229 20.2643 5.74753C19.8698 4.78107 19.2189 4.13018 18.2525 3.7357C17.8777 3.59763 17.3057 3.40039 16.2801 3.36095C15.1755 3.3215 14.8402 3.30178 12 3.30178ZM12 16.0039C14.2091 16.0039 16.0039 14.2091 16.0039 12C16.0039 9.79093 14.2091 7.99606 12 7.99606C9.79093 7.99606 7.99606 9.79093 7.99606 12C7.99606 14.2091 9.79093 16.0039 12 16.0039ZM12 6.87179C14.8402 6.87179 17.1282 9.15976 17.1282 12C17.1282 14.8402 14.8402 17.1282 12 17.1282C9.15976 17.1282 6.87179 14.8402 6.87179 12C6.87179 9.15976 9.15976 6.87179 12 6.87179ZM18.5483 6.67456C18.5483 7.34517 17.9961 7.85799 17.3254 7.85799C16.6548 7.85799 16.142 7.34517 16.142 6.67456C16.142 6.00394 16.6548 5.45168 17.3254 5.45168C17.9961 5.45168 18.5483 6.00394 18.5483 6.67456Z" fill="white"/>
</svg>
