<svg width="32" height="32" viewBox="0 0 32 32" fill="none" xmlns="http://www.w3.org/2000/svg">
<path d="M3.11328 13.7824C2.69561 13.3961 2.92249 12.6979 3.48743 12.6309L11.4922 11.6814C11.7224 11.6541 11.9224 11.5095 12.0195 11.299L15.3959 3.97928C15.6341 3.46271 16.3685 3.4626 16.6068 3.97919L19.9831 11.2988C20.0801 11.5094 20.2789 11.6544 20.5091 11.6817L28.5143 12.6309C29.0792 12.6979 29.3055 13.3963 28.8879 13.7825L22.9704 19.2559C22.8001 19.4133 22.7244 19.6476 22.7695 19.8751L24.34 27.7812C24.4509 28.3392 23.8571 28.7716 23.3607 28.4937L16.3268 24.5555C16.1245 24.4423 15.8788 24.4428 15.6764 24.556L8.64192 28.4927C8.14551 28.7705 7.55059 28.3392 7.66145 27.7812L9.23219 19.8755C9.27737 19.6481 9.20179 19.4132 9.03156 19.2559L3.11328 13.7824Z" stroke="#1EC9AA" stroke-width="2" stroke-linecap="round" stroke-linejoin="round"/>
</svg>
