<svg width="12" height="12" viewBox="0 0 12 12" fill="none" xmlns="http://www.w3.org/2000/svg">
<path d="M7.63202 4.87714L7.63201 4.87714C7.37231 4.84634 7.14855 4.68267 7.03962 4.44649C7.03961 4.44646 7.03959 4.44643 7.03958 4.4464L6.00051 2.19372L4.96135 4.44655L4.96134 4.44657C4.85168 4.68429 4.6265 4.84645 4.36846 4.87705L4.36846 4.87705M7.63202 4.87714L1.16748 5.1684C1.01086 5.02355 1.09594 4.76169 1.30779 4.73658L4.30957 4.38053L4.36846 4.87705M7.63202 4.87714L10.0957 5.16927L8.27441 6.85387C8.27441 6.85388 8.2744 6.85388 8.27439 6.85389C8.08244 7.03142 7.99755 7.29527 8.04808 7.55032L8.04813 7.55057L8.53154 9.98406L6.36682 8.77203L6.36674 8.77198C6.13832 8.64415 5.8613 8.64532 5.63459 8.77211L5.63447 8.77218L3.46903 9.98401L3.95248 7.55078C3.95248 7.55076 3.95248 7.55075 3.95248 7.55074C4.00307 7.29616 3.91873 7.03178 3.72632 6.85387C3.72629 6.85384 3.72625 6.8538 3.72621 6.85376L1.90482 5.16927M7.63202 4.87714L1.90482 5.16927M4.36846 4.87705L1.90482 5.16927M4.36846 4.87705L1.90482 5.16927M10.634 5.2331C10.6339 5.23309 10.6338 5.23308 10.6337 5.23306L10.634 5.2331L10.634 5.2331ZM8.6371 10.5154C8.63707 10.5153 8.63705 10.5152 8.63703 10.5151L8.63708 10.5154L8.6371 10.5154ZM1.50697 4.80132C1.50702 4.80136 1.50706 4.80141 1.50711 4.80145L1.50697 4.80132ZM5.77352 1.70162L5.77364 1.70188C5.7736 1.70179 5.77356 1.7017 5.77352 1.70161L5.77352 1.70162Z" stroke="#FFF501" stroke-linecap="round" stroke-linejoin="round"/>
<path fill-rule="evenodd" clip-rule="evenodd" d="M6.91309 2.81992L6.14064 1.14527C6.05129 0.951551 5.77589 0.951591 5.68654 1.14531L4.42041 3.8902C4.38399 3.96915 4.309 4.02337 4.22266 4.03361L1.22087 4.38966C1.00902 4.41477 0.923941 4.67663 1.08057 4.82148L3.29992 6.87403C3.36376 6.93303 3.3921 7.02113 3.37516 7.10638L2.78613 10.071C2.74456 10.2803 2.96765 10.442 3.15381 10.3378L5.79174 8.86158C5.86764 8.81913 5.95979 8.81893 6.03564 8.86138L6.91309 9.35266V2.81992Z" fill="#FFF501"/>
</svg>
